Coordinates
version=1
nRows=8
nColumns=63
inDegrees=yes

Units are S.I. units (second, meters, Newtons, ...)
If the header above contains a line with 'inDegrees', this indicates whether rotational values are in degrees (yes) or radians (no).

endheader
time	pelvis_tilt	pelvis_list	pelvis_rotation	pelvis_tx	pelvis_ty	pelvis_tz	hip_flexion_r	hip_adduction_r	hip_rotation_r	knee_angle_r	knee_angle_r_beta	ankle_angle_r	subtalar_angle_r	mtp_angle_r	hip_flexion_l	hip_adduction_l	hip_rotation_l	knee_angle_l	knee_angle_l_beta	ankle_angle_l	subtalar_angle_l	mtp_angle_l	L5_S1_Flex_Ext	L5_S1_Lat_Bending	L5_S1_axial_rotation	L4_L5_Flex_Ext	L4_L5_Lat_Bending	L4_L5_axial_rotation	L3_L4_Flex_Ext	L3_L4_Lat_Bending	L3_L4_axial_rotation	L2_L3_Flex_Ext	L2_L3_Lat_Bending	L2_L3_axial_rotation	L1_L2_Flex_Ext	L1_L2_Lat_Bending	L1_L2_axial_rotation	L1_T12_Flex_Ext	L1_T12_Lat_Bending	L1_T12_axial_rotation	Abs_r3	Abs_r2	Abs_r1	Abs_t1	Abs_t2	neck_flexion	neck_bending	neck_rotation	arm_flex_r	arm_add_r	arm_rot_r	elbow_flex_r	pro_sup_r	wrist_flex_r	wrist_dev_r	arm_flex_l	arm_add_l	arm_rot_l	elbow_flex_l	pro_sup_l	wrist_flex_l	wrist_dev_l
2.683333	12.489596	1.348776	76.577661	-0.137952	0.785833	0.715791	0.846769	7.129796	-0.032414	7.108667	0.124070	18.491798	15.468342	0.000000	-2.582859	-7.904796	-4.634208	5.122144	0.089398	23.420207	-10.732976	0.000000	-0.225638	1.104498	2.899580	-0.419032	1.468983	3.080804	-0.370700	2.685477	3.080804	-0.257881	2.685477	2.537133	-0.209527	2.252293	2.355909	-0.128929	1.710868	2.174685	-1.611707	12.494305	16.126596	0.000000	0.000000	15.201620	3.917383	-20.089045	-7.578163	-31.294838	1.704310	109.238806	83.961173	-3.694198	18.214234	41.630161	30.752642	213.150159	0.076822	1.005966	-69.813379	-24.341389
2.700000	12.289576	0.964542	77.846255	-0.139068	0.784776	0.715364	1.298310	7.027705	-1.166484	7.005309	0.122266	18.758113	15.546148	0.000000	-1.723896	-7.873433	-3.552934	5.375282	0.093816	23.743714	-10.525530	0.000000	-0.175262	1.115576	2.693606	-0.325478	1.483716	2.861956	-0.287937	2.712411	2.861956	-0.200306	2.712411	2.356905	-0.162748	2.274882	2.188555	-0.100144	1.728027	2.020204	-1.251876	12.619616	14.981028	0.000000	0.000000	15.886430	3.443794	-19.190783	-6.865289	-30.904270	4.271704	107.119854	84.897240	-3.941980	18.839918	40.406953	30.053901	212.881029	0.079167	1.019665	-69.805211	-24.305359
2.716667	12.119203	0.625827	79.094628	-0.140289	0.783807	0.715043	1.705510	6.928435	-2.338069	6.924612	0.120857	18.984162	15.665520	0.000000	-0.913429	-7.844894	-2.536734	5.630813	0.098276	24.111024	-10.275916	0.000000	-0.129069	1.128358	2.487199	-0.239695	1.500716	2.642649	-0.212048	2.743490	2.642649	-0.147513	2.743490	2.176299	-0.119854	2.300948	2.020849	-0.073750	1.747827	1.865399	-0.921930	12.764212	13.833053	0.000000	0.000000	16.441590	3.019694	-18.296912	-6.116835	-30.600525	6.523723	105.199078	85.573753	-3.925989	19.195690	39.385810	29.470812	212.771892	0.081310	1.044964	-69.797407	-24.273835
2.733333	11.971777	0.343798	80.288552	-0.141552	0.782932	0.714820	2.056899	6.825207	-3.513561	6.876939	0.120025	19.171933	15.810968	0.000000	-0.177582	-7.810110	-1.610072	5.877947	0.102590	24.503880	-9.986377	0.000000	-0.088501	1.141410	2.283630	-0.164355	1.518076	2.426357	-0.145398	2.775225	2.426357	-0.101148	2.775225	1.998176	-0.082182	2.327564	1.855450	-0.050569	1.768044	1.712723	-0.632153	12.911860	12.700866	0.000000	0.000000	16.860243	2.681115	-17.422905	-5.293400	-30.354516	8.435838	103.465211	85.887930	-3.602141	19.282782	38.597016	29.004606	212.786377	0.083118	1.070737	-69.789712	-24.245456
2.750000	11.839718	0.122435	81.381288	-0.142751	0.782151	0.714683	2.348332	6.713234	-4.646083	6.870780	0.119918	19.322608	15.975256	0.000000	0.459822	-7.761835	-0.814003	6.101283	0.106487	24.897599	-9.661112	0.000000	-0.054131	1.153057	2.092355	-0.100526	1.533565	2.223127	-0.088931	2.803542	2.223127	-0.061866	2.803542	1.830811	-0.050266	2.351313	1.700038	-0.030930	1.786085	1.569266	-0.386650	13.043606	11.637051	0.000000	0.000000	17.126865	2.446822	-16.610527	-4.417348	-30.142839	9.950561	101.918508	85.808625	-3.024754	19.105267	38.073803	28.651527	212.764445	0.084615	1.099635	-69.781700	-24.221234
2.766667	11.702310	-0.024010	82.348746	-0.143780	0.781481	0.714605	2.567331	6.573938	-5.694664	6.910460	0.120610	19.451119	16.135610	0.000000	0.972195	-7.680976	-0.153563	6.284471	0.109685	25.255141	-9.318676	0.000000	-0.027692	1.159678	1.915581	-0.051427	1.542372	2.035304	-0.045495	2.819641	2.035304	-0.031649	2.819641	1.676133	-0.025715	2.364816	1.556409	-0.015823	1.796341	1.436686	-0.197801	13.118511	10.653885	0.000000	0.000000	17.219872	2.357637	-15.827757	-3.481067	-29.937225	11.057569	100.570647	85.417657	-2.315273	18.754539	37.848863	28.371730	212.539375	0.085798	1.126673	-69.773457	-24.200775
2.783333	11.550406	-0.098277	83.173365	-0.144565	0.780936	0.714588	2.713145	6.406706	-6.638643	6.987769	0.121960	19.560188	16.279063	0.000000	1.352308	-7.565016	0.394029	6.416974	0.111997	25.544394	-9.015494	0.000000	-0.009365	1.159162	1.759130	-0.017392	1.541685	1.869076	-0.015386	2.818386	1.869076	-0.010703	2.818386	1.539239	-0.008696	2.363763	1.429293	-0.005351	1.795542	1.319348	-0.066893	13.112672	9.783754	0.000000	0.000000	17.130014	2.422710	-15.129019	-2.516759	-29.715417	11.714259	99.456412	85.088288	-1.621507	18.315195	37.941106	28.146375	211.984480	0.086710	1.155826	-69.765498	-24.185314
2.800000	11.376610	-0.101263	83.830793	-0.145048	0.780548	0.714638	2.787258	6.209298	-7.444695	7.099663	0.123913	19.645473	16.400064	0.000000	1.590312	-7.411285	0.801136	6.486997	0.113219	25.738941	-8.737663	0.000000	0.000060	1.149382	1.629199	0.000112	1.528679	1.731024	0.000099	2.794608	1.731024	0.000069	2.794608	1.425549	0.000056	2.343821	1.323724	0.000034	1.780393	1.221899	0.000431	13.002044	9.061116	0.000000	0.000000	16.856230	2.665231	-14.545871	-1.542331	-29.481684	11.911903	98.608235	85.018616	-1.028744	17.869838	38.369171	27.966038	211.110640	0.087348	1.189197	-69.758487	-24.175798
